<svg width="104px" height="35px" viewBox="0 0 104 35" version="1.1" xmlns="http://www.w3.org/2000/svg" xmlns:xlink="http://www.w3.org/1999/xlink">
    <!-- Generator: Sketch 43.1 (39012) - http://www.bohemiancoding.com/sketch -->
    <desc>Created with Sketch.</desc>
    <defs>
        <polygon id="path-1" points="0 34.1727093 103.780639 34.1727093 103.780639 0.792806856 0 0.792806856"></polygon>
    </defs>
    <g id="Page-1" stroke="none" stroke-width="1" fill="none" fill-rule="evenodd">
        <g id="HAP-Home-R1B" transform="translate(-120.000000, -31.000000)">
            <g id="Group-4">
                <g id="Group-3" transform="translate(120.000000, 31.000000)">
                    <g id="Page-1">
                        <polygon id="Fill-1" fill="#FFFFFF" points="57.622205 14.2060224 57.622205 21.787238 49.6343059 21.787238 49.6343059 14.2060224 44.6868773 14.2060224 44.6868773 34.233793 49.6343059 34.233793 49.6343059 25.8614792 57.622205 25.8614792 57.622205 34.233793 62.5705076 34.233793 62.5705076 14.2060224"></polygon>
                        <path d="M73.0481143,14.2060224 L64.4536941,34.233793 L69.8354756,34.233793 L71.3412908,30.3030771 L79.2697613,30.3030771 L80.8620975,34.233793 L86.3601143,34.233793 L77.8513412,14.2060224 L73.0481143,14.2060224 Z M75.3640807,19.5531971 L77.9090218,26.4261833 L72.758837,26.4261833 L75.3640807,19.5531971 Z" id="Fill-2" fill="#FFFFFF"></path>
                        <g id="Group-8" transform="translate(0.000000, 0.061255)">
                            <path d="M95.360921,18.048829 L93.1900303,18.048829 L93.1900303,22.7732061 L95.2726521,22.7732061 C97.1254252,22.7732061 98.8331227,22.2358402 98.8331227,20.3401092 C98.8331227,18.4161856 97.1254252,18.048829 95.360921,18.048829 Z M95.6493244,26.6201988 L93.1900303,26.6201988 L93.1900303,34.1723676 L88.2417277,34.1723676 L88.2417277,14.144597 L95.7646857,14.144597 C100.250669,14.144597 103.780551,15.728502 103.780551,20.3119167 C103.780551,24.950862 99.9316773,26.6201988 95.6493244,26.6201988 Z" id="Fill-3" fill="#FFFFFF"></path>
                            <mask id="mask-2" fill="white">
                                <use xlink:href="#path-1"></use>
                            </mask>
                            <g id="Clip-6"></g>
                            <polygon id="Fill-5" fill="#FFFFFF" mask="url(#mask-2)" points="0 34.1727093 15.3666555 34.1727093 15.3666555 0.792806856 0 0.792806856"></polygon>
                            <polygon id="Fill-7" fill="#FFFFFF" mask="url(#mask-2)" points="18.7803025 34.1727093 34.146958 34.1727093 34.146958 14.1449387 18.7803025 14.1449387"></polygon>
                        </g>
                    </g>
                </g>
            </g>
        </g>
    </g>
</svg>